<mxfile host="Electron" agent="Mozilla/5.0 (Macintosh; Intel Mac OS X 10_15_7) AppleWebKit/537.36 (KHTML, like Gecko) draw.io/26.0.4 Chrome/128.0.6613.186 Electron/32.2.5 Safari/537.36" version="26.0.4">
  <diagram name="Page-1" id="ge63VyV_1pIy7mYk1GIv">
    <mxGraphModel dx="1434" dy="854" grid="1" gridSize="10" guides="1" tooltips="1" connect="1" arrows="1" fold="1" page="1" pageScale="1" pageWidth="850" pageHeight="1100" math="0" shadow="0">
      <root>
        <mxCell id="0" />
        <mxCell id="1" parent="0" />
        <mxCell id="rD1QUfDaMHbPbBrSeHR1-1" value="Coordinator" style="shape=umlLifeline;perimeter=lifelinePerimeter;whiteSpace=wrap;container=1;dropTarget=0;collapsible=0;recursiveResize=0;outlineConnect=0;portConstraint=eastwest;newEdgeStyle={&quot;edgeStyle&quot;:&quot;elbowEdgeStyle&quot;,&quot;elbow&quot;:&quot;vertical&quot;,&quot;curved&quot;:0,&quot;rounded&quot;:0};size=65;labelBackgroundColor=none;fillColor=#B1DDF0;strokeColor=#BAC8D3;fontColor=#182E3E;fontStyle=1" vertex="1" parent="1">
          <mxGeometry x="20" y="20" width="150" height="822" as="geometry" />
        </mxCell>
        <mxCell id="rD1QUfDaMHbPbBrSeHR1-2" value="UI" style="shape=umlLifeline;perimeter=lifelinePerimeter;whiteSpace=wrap;container=1;dropTarget=0;collapsible=0;recursiveResize=0;outlineConnect=0;portConstraint=eastwest;newEdgeStyle={&quot;edgeStyle&quot;:&quot;elbowEdgeStyle&quot;,&quot;elbow&quot;:&quot;vertical&quot;,&quot;curved&quot;:0,&quot;rounded&quot;:0};size=65;labelBackgroundColor=none;fillColor=#B1DDF0;strokeColor=#BAC8D3;fontColor=#182E3E;fontStyle=1" vertex="1" parent="1">
          <mxGeometry x="240" y="20" width="150" height="822" as="geometry" />
        </mxCell>
        <mxCell id="rD1QUfDaMHbPbBrSeHR1-3" value="API" style="shape=umlLifeline;perimeter=lifelinePerimeter;whiteSpace=wrap;container=1;dropTarget=0;collapsible=0;recursiveResize=0;outlineConnect=0;portConstraint=eastwest;newEdgeStyle={&quot;edgeStyle&quot;:&quot;elbowEdgeStyle&quot;,&quot;elbow&quot;:&quot;vertical&quot;,&quot;curved&quot;:0,&quot;rounded&quot;:0};size=65;labelBackgroundColor=none;fillColor=#B1DDF0;strokeColor=#BAC8D3;fontColor=#182E3E;fontStyle=1" vertex="1" parent="1">
          <mxGeometry x="551" y="20" width="150" height="822" as="geometry" />
        </mxCell>
        <mxCell id="rD1QUfDaMHbPbBrSeHR1-4" value="Cognito" style="shape=umlLifeline;perimeter=lifelinePerimeter;whiteSpace=wrap;container=1;dropTarget=0;collapsible=0;recursiveResize=0;outlineConnect=0;portConstraint=eastwest;newEdgeStyle={&quot;edgeStyle&quot;:&quot;elbowEdgeStyle&quot;,&quot;elbow&quot;:&quot;vertical&quot;,&quot;curved&quot;:0,&quot;rounded&quot;:0};size=65;labelBackgroundColor=none;fillColor=#B1DDF0;strokeColor=#BAC8D3;fontColor=#182E3E;fontStyle=1" vertex="1" parent="1">
          <mxGeometry x="751" y="20" width="150" height="822" as="geometry" />
        </mxCell>
        <mxCell id="rD1QUfDaMHbPbBrSeHR1-5" value="Lambda" style="shape=umlLifeline;perimeter=lifelinePerimeter;whiteSpace=wrap;container=1;dropTarget=0;collapsible=0;recursiveResize=0;outlineConnect=0;portConstraint=eastwest;newEdgeStyle={&quot;edgeStyle&quot;:&quot;elbowEdgeStyle&quot;,&quot;elbow&quot;:&quot;vertical&quot;,&quot;curved&quot;:0,&quot;rounded&quot;:0};size=65;labelBackgroundColor=none;fillColor=#B1DDF0;strokeColor=#BAC8D3;fontColor=#182E3E;fontStyle=1" vertex="1" parent="1">
          <mxGeometry x="985" y="20" width="150" height="822" as="geometry" />
        </mxCell>
        <mxCell id="rD1QUfDaMHbPbBrSeHR1-6" value="Guest" style="shape=umlLifeline;perimeter=lifelinePerimeter;whiteSpace=wrap;container=1;dropTarget=0;collapsible=0;recursiveResize=0;outlineConnect=0;portConstraint=eastwest;newEdgeStyle={&quot;edgeStyle&quot;:&quot;elbowEdgeStyle&quot;,&quot;elbow&quot;:&quot;vertical&quot;,&quot;curved&quot;:0,&quot;rounded&quot;:0};size=65;labelBackgroundColor=none;fillColor=#B1DDF0;strokeColor=#BAC8D3;fontColor=#182E3E;fontStyle=1" vertex="1" parent="1">
          <mxGeometry x="1205" y="20" width="150" height="822" as="geometry" />
        </mxCell>
        <mxCell id="rD1QUfDaMHbPbBrSeHR1-7" value="DB" style="shape=umlLifeline;perimeter=lifelinePerimeter;whiteSpace=wrap;container=1;dropTarget=0;collapsible=0;recursiveResize=0;outlineConnect=0;portConstraint=eastwest;newEdgeStyle={&quot;edgeStyle&quot;:&quot;elbowEdgeStyle&quot;,&quot;elbow&quot;:&quot;vertical&quot;,&quot;curved&quot;:0,&quot;rounded&quot;:0};size=65;labelBackgroundColor=none;fillColor=#B1DDF0;strokeColor=#BAC8D3;fontColor=#182E3E;fontStyle=1" vertex="1" parent="1">
          <mxGeometry x="1405" y="20" width="150" height="822" as="geometry" />
        </mxCell>
        <mxCell id="rD1QUfDaMHbPbBrSeHR1-8" value="S3" style="shape=umlLifeline;perimeter=lifelinePerimeter;whiteSpace=wrap;container=1;dropTarget=0;collapsible=0;recursiveResize=0;outlineConnect=0;portConstraint=eastwest;newEdgeStyle={&quot;edgeStyle&quot;:&quot;elbowEdgeStyle&quot;,&quot;elbow&quot;:&quot;vertical&quot;,&quot;curved&quot;:0,&quot;rounded&quot;:0};size=65;labelBackgroundColor=none;fillColor=#B1DDF0;strokeColor=#BAC8D3;fontColor=#182E3E;fontStyle=1" vertex="1" parent="1">
          <mxGeometry x="1605" y="20" width="150" height="822" as="geometry" />
        </mxCell>
        <mxCell id="rD1QUfDaMHbPbBrSeHR1-9" value="Invite Guest by email" style="verticalAlign=bottom;edgeStyle=elbowEdgeStyle;elbow=vertical;curved=0;rounded=0;endArrow=block;labelBackgroundColor=none;strokeColor=#EEEEEE;fontColor=default;" edge="1" parent="1" source="rD1QUfDaMHbPbBrSeHR1-1" target="rD1QUfDaMHbPbBrSeHR1-2">
          <mxGeometry relative="1" as="geometry">
            <Array as="points">
              <mxPoint x="214" y="121" />
            </Array>
          </mxGeometry>
        </mxCell>
        <mxCell id="rD1QUfDaMHbPbBrSeHR1-10" value="1" style="ellipse;aspect=fixed;fillColor=#B1DDF0;align=center;fontColor=#182E3E;labelBackgroundColor=none;strokeColor=#BAC8D3;" vertex="1" parent="rD1QUfDaMHbPbBrSeHR1-9">
          <mxGeometry width="14" height="14" relative="1" as="geometry">
            <mxPoint x="-117.5" y="-7" as="offset" />
          </mxGeometry>
        </mxCell>
        <mxCell id="rD1QUfDaMHbPbBrSeHR1-11" value="Submit invitation request" style="verticalAlign=bottom;edgeStyle=elbowEdgeStyle;elbow=vertical;curved=0;rounded=0;endArrow=block;labelBackgroundColor=none;strokeColor=#EEEEEE;fontColor=default;" edge="1" parent="1" source="rD1QUfDaMHbPbBrSeHR1-2" target="rD1QUfDaMHbPbBrSeHR1-3">
          <mxGeometry relative="1" as="geometry">
            <Array as="points">
              <mxPoint x="479" y="167" />
            </Array>
          </mxGeometry>
        </mxCell>
        <mxCell id="rD1QUfDaMHbPbBrSeHR1-12" value="2" style="ellipse;aspect=fixed;fillColor=#B1DDF0;align=center;fontColor=#182E3E;labelBackgroundColor=none;strokeColor=#BAC8D3;" vertex="1" parent="rD1QUfDaMHbPbBrSeHR1-11">
          <mxGeometry width="14" height="14" relative="1" as="geometry">
            <mxPoint x="-163" y="-7" as="offset" />
          </mxGeometry>
        </mxCell>
        <mxCell id="rD1QUfDaMHbPbBrSeHR1-13" value="Initiate user invite" style="verticalAlign=bottom;edgeStyle=elbowEdgeStyle;elbow=vertical;curved=0;rounded=0;endArrow=block;labelBackgroundColor=none;strokeColor=#EEEEEE;fontColor=default;" edge="1" parent="1" source="rD1QUfDaMHbPbBrSeHR1-3" target="rD1QUfDaMHbPbBrSeHR1-4">
          <mxGeometry relative="1" as="geometry">
            <Array as="points">
              <mxPoint x="735" y="213" />
            </Array>
          </mxGeometry>
        </mxCell>
        <mxCell id="rD1QUfDaMHbPbBrSeHR1-14" value="3" style="ellipse;aspect=fixed;fillColor=#B1DDF0;align=center;fontColor=#182E3E;labelBackgroundColor=none;strokeColor=#BAC8D3;" vertex="1" parent="rD1QUfDaMHbPbBrSeHR1-13">
          <mxGeometry width="14" height="14" relative="1" as="geometry">
            <mxPoint x="-107.5" y="-7" as="offset" />
          </mxGeometry>
        </mxCell>
        <mxCell id="rD1QUfDaMHbPbBrSeHR1-15" value="Trigger email invitation" style="verticalAlign=bottom;edgeStyle=elbowEdgeStyle;elbow=vertical;curved=0;rounded=0;endArrow=block;labelBackgroundColor=none;strokeColor=#EEEEEE;fontColor=default;" edge="1" parent="1" source="rD1QUfDaMHbPbBrSeHR1-4" target="rD1QUfDaMHbPbBrSeHR1-5">
          <mxGeometry relative="1" as="geometry">
            <Array as="points">
              <mxPoint x="952" y="259" />
            </Array>
          </mxGeometry>
        </mxCell>
        <mxCell id="rD1QUfDaMHbPbBrSeHR1-16" value="4" style="ellipse;aspect=fixed;fillColor=#B1DDF0;align=center;fontColor=#182E3E;labelBackgroundColor=none;strokeColor=#BAC8D3;" vertex="1" parent="rD1QUfDaMHbPbBrSeHR1-15">
          <mxGeometry width="14" height="14" relative="1" as="geometry">
            <mxPoint x="-124.5" y="-7" as="offset" />
          </mxGeometry>
        </mxCell>
        <mxCell id="rD1QUfDaMHbPbBrSeHR1-17" value="Send invitation email" style="verticalAlign=bottom;edgeStyle=elbowEdgeStyle;elbow=vertical;curved=0;rounded=0;endArrow=block;labelBackgroundColor=none;strokeColor=#EEEEEE;fontColor=default;" edge="1" parent="1" source="rD1QUfDaMHbPbBrSeHR1-5" target="rD1QUfDaMHbPbBrSeHR1-6">
          <mxGeometry relative="1" as="geometry">
            <Array as="points">
              <mxPoint x="1179" y="305" />
            </Array>
          </mxGeometry>
        </mxCell>
        <mxCell id="rD1QUfDaMHbPbBrSeHR1-18" value="5" style="ellipse;aspect=fixed;fillColor=#B1DDF0;align=center;fontColor=#182E3E;labelBackgroundColor=none;strokeColor=#BAC8D3;" vertex="1" parent="rD1QUfDaMHbPbBrSeHR1-17">
          <mxGeometry width="14" height="14" relative="1" as="geometry">
            <mxPoint x="-117.5" y="-7" as="offset" />
          </mxGeometry>
        </mxCell>
        <mxCell id="rD1QUfDaMHbPbBrSeHR1-19" value="Follow link and provide preferred name/email" style="verticalAlign=bottom;edgeStyle=elbowEdgeStyle;elbow=vertical;curved=0;rounded=0;endArrow=block;labelBackgroundColor=none;strokeColor=#EEEEEE;fontColor=default;" edge="1" parent="1" source="rD1QUfDaMHbPbBrSeHR1-6" target="rD1QUfDaMHbPbBrSeHR1-2">
          <mxGeometry relative="1" as="geometry">
            <Array as="points">
              <mxPoint x="809" y="351" />
            </Array>
          </mxGeometry>
        </mxCell>
        <mxCell id="rD1QUfDaMHbPbBrSeHR1-20" value="6" style="ellipse;aspect=fixed;fillColor=#B1DDF0;align=center;fontColor=#182E3E;labelBackgroundColor=none;strokeColor=#BAC8D3;" vertex="1" parent="rD1QUfDaMHbPbBrSeHR1-19">
          <mxGeometry width="14" height="14" relative="1" as="geometry">
            <mxPoint x="476" y="-7" as="offset" />
          </mxGeometry>
        </mxCell>
        <mxCell id="rD1QUfDaMHbPbBrSeHR1-21" value="Submit account creation request" style="verticalAlign=bottom;edgeStyle=elbowEdgeStyle;elbow=vertical;curved=0;rounded=0;endArrow=block;labelBackgroundColor=none;strokeColor=#EEEEEE;fontColor=default;" edge="1" parent="1" source="rD1QUfDaMHbPbBrSeHR1-2" target="rD1QUfDaMHbPbBrSeHR1-3">
          <mxGeometry relative="1" as="geometry">
            <Array as="points">
              <mxPoint x="479" y="397" />
            </Array>
          </mxGeometry>
        </mxCell>
        <mxCell id="rD1QUfDaMHbPbBrSeHR1-22" value="7" style="ellipse;aspect=fixed;fillColor=#B1DDF0;align=center;fontColor=#182E3E;labelBackgroundColor=none;strokeColor=#BAC8D3;" vertex="1" parent="rD1QUfDaMHbPbBrSeHR1-21">
          <mxGeometry width="14" height="14" relative="1" as="geometry">
            <mxPoint x="-163" y="-7" as="offset" />
          </mxGeometry>
        </mxCell>
        <mxCell id="rD1QUfDaMHbPbBrSeHR1-23" value="Validate and create user record in Guests table" style="verticalAlign=bottom;edgeStyle=elbowEdgeStyle;elbow=vertical;curved=0;rounded=0;endArrow=block;labelBackgroundColor=none;strokeColor=#EEEEEE;fontColor=default;" edge="1" parent="1" source="rD1QUfDaMHbPbBrSeHR1-3" target="rD1QUfDaMHbPbBrSeHR1-7">
          <mxGeometry relative="1" as="geometry">
            <Array as="points">
              <mxPoint x="1062" y="443" />
            </Array>
          </mxGeometry>
        </mxCell>
        <mxCell id="rD1QUfDaMHbPbBrSeHR1-24" value="8" style="ellipse;aspect=fixed;fillColor=#B1DDF0;align=center;fontColor=#182E3E;labelBackgroundColor=none;strokeColor=#BAC8D3;" vertex="1" parent="rD1QUfDaMHbPbBrSeHR1-23">
          <mxGeometry width="14" height="14" relative="1" as="geometry">
            <mxPoint x="-434.5" y="-7" as="offset" />
          </mxGeometry>
        </mxCell>
        <mxCell id="rD1QUfDaMHbPbBrSeHR1-25" value="Confirm successful user creation" style="verticalAlign=bottom;edgeStyle=elbowEdgeStyle;elbow=vertical;curved=0;rounded=0;endArrow=block;labelBackgroundColor=none;strokeColor=#EEEEEE;fontColor=default;" edge="1" parent="1" source="rD1QUfDaMHbPbBrSeHR1-3" target="rD1QUfDaMHbPbBrSeHR1-2">
          <mxGeometry relative="1" as="geometry">
            <Array as="points">
              <mxPoint x="482" y="489" />
            </Array>
          </mxGeometry>
        </mxCell>
        <mxCell id="rD1QUfDaMHbPbBrSeHR1-26" value="9" style="ellipse;aspect=fixed;fillColor=#B1DDF0;align=center;fontColor=#182E3E;labelBackgroundColor=none;strokeColor=#BAC8D3;" vertex="1" parent="rD1QUfDaMHbPbBrSeHR1-25">
          <mxGeometry width="14" height="14" relative="1" as="geometry">
            <mxPoint x="149" y="-7" as="offset" />
          </mxGeometry>
        </mxCell>
        <mxCell id="rD1QUfDaMHbPbBrSeHR1-27" value="Reroute to Guest Intake Profile" style="verticalAlign=bottom;edgeStyle=elbowEdgeStyle;elbow=vertical;curved=0;rounded=0;endArrow=block;labelBackgroundColor=none;strokeColor=#EEEEEE;fontColor=default;" edge="1" parent="1" source="rD1QUfDaMHbPbBrSeHR1-2" target="rD1QUfDaMHbPbBrSeHR1-6">
          <mxGeometry relative="1" as="geometry">
            <Array as="points">
              <mxPoint x="806" y="535" />
            </Array>
          </mxGeometry>
        </mxCell>
        <mxCell id="rD1QUfDaMHbPbBrSeHR1-28" value="10" style="ellipse;aspect=fixed;fillColor=#B1DDF0;align=center;fontColor=#182E3E;labelBackgroundColor=none;strokeColor=#BAC8D3;" vertex="1" parent="rD1QUfDaMHbPbBrSeHR1-27">
          <mxGeometry width="14" height="14" relative="1" as="geometry">
            <mxPoint x="-490" y="-7" as="offset" />
          </mxGeometry>
        </mxCell>
        <mxCell id="rD1QUfDaMHbPbBrSeHR1-29" value="Complete Intake Profile questionnaire" style="verticalAlign=bottom;edgeStyle=elbowEdgeStyle;elbow=vertical;curved=0;rounded=0;endArrow=block;labelBackgroundColor=none;strokeColor=#EEEEEE;fontColor=default;" edge="1" parent="1" source="rD1QUfDaMHbPbBrSeHR1-6" target="rD1QUfDaMHbPbBrSeHR1-2">
          <mxGeometry relative="1" as="geometry">
            <Array as="points">
              <mxPoint x="809" y="581" />
            </Array>
          </mxGeometry>
        </mxCell>
        <mxCell id="rD1QUfDaMHbPbBrSeHR1-30" value="11" style="ellipse;aspect=fixed;fillColor=#B1DDF0;align=center;fontColor=#182E3E;labelBackgroundColor=none;strokeColor=#BAC8D3;" vertex="1" parent="rD1QUfDaMHbPbBrSeHR1-29">
          <mxGeometry width="14" height="14" relative="1" as="geometry">
            <mxPoint x="476" y="-7" as="offset" />
          </mxGeometry>
        </mxCell>
        <mxCell id="rD1QUfDaMHbPbBrSeHR1-31" value="Validate and submit Intake Profile" style="verticalAlign=bottom;edgeStyle=elbowEdgeStyle;elbow=vertical;curved=0;rounded=0;endArrow=block;labelBackgroundColor=none;strokeColor=#EEEEEE;fontColor=default;" edge="1" parent="1" source="rD1QUfDaMHbPbBrSeHR1-2" target="rD1QUfDaMHbPbBrSeHR1-3">
          <mxGeometry relative="1" as="geometry">
            <Array as="points">
              <mxPoint x="479" y="627" />
            </Array>
          </mxGeometry>
        </mxCell>
        <mxCell id="rD1QUfDaMHbPbBrSeHR1-32" value="12" style="ellipse;aspect=fixed;fillColor=#B1DDF0;align=center;fontColor=#182E3E;labelBackgroundColor=none;strokeColor=#BAC8D3;" vertex="1" parent="rD1QUfDaMHbPbBrSeHR1-31">
          <mxGeometry width="14" height="14" relative="1" as="geometry">
            <mxPoint x="-163" y="-7" as="offset" />
          </mxGeometry>
        </mxCell>
        <mxCell id="rD1QUfDaMHbPbBrSeHR1-33" value="Validate and create/update rows for&#xa;user in Guest Intake Responses table" style="verticalAlign=bottom;edgeStyle=elbowEdgeStyle;elbow=vertical;curved=0;rounded=0;endArrow=block;labelBackgroundColor=none;strokeColor=#EEEEEE;fontColor=default;" edge="1" parent="1" source="rD1QUfDaMHbPbBrSeHR1-3" target="rD1QUfDaMHbPbBrSeHR1-7">
          <mxGeometry relative="1" as="geometry">
            <Array as="points">
              <mxPoint x="1062" y="691" />
            </Array>
          </mxGeometry>
        </mxCell>
        <mxCell id="rD1QUfDaMHbPbBrSeHR1-34" value="13" style="ellipse;aspect=fixed;fillColor=#B1DDF0;align=center;fontColor=#182E3E;labelBackgroundColor=none;strokeColor=#BAC8D3;" vertex="1" parent="rD1QUfDaMHbPbBrSeHR1-33">
          <mxGeometry width="14" height="14" relative="1" as="geometry">
            <mxPoint x="-434.5" y="-7" as="offset" />
          </mxGeometry>
        </mxCell>
        <mxCell id="rD1QUfDaMHbPbBrSeHR1-35" value="Upload photos to Guest Photos bucket" style="verticalAlign=bottom;edgeStyle=elbowEdgeStyle;elbow=vertical;curved=0;rounded=0;endArrow=block;labelBackgroundColor=none;strokeColor=#EEEEEE;fontColor=default;" edge="1" parent="1" source="rD1QUfDaMHbPbBrSeHR1-3" target="rD1QUfDaMHbPbBrSeHR1-8">
          <mxGeometry relative="1" as="geometry">
            <Array as="points">
              <mxPoint x="1162" y="737" />
            </Array>
          </mxGeometry>
        </mxCell>
        <mxCell id="rD1QUfDaMHbPbBrSeHR1-36" value="14" style="ellipse;aspect=fixed;fillColor=#B1DDF0;align=center;fontColor=#182E3E;labelBackgroundColor=none;strokeColor=#BAC8D3;" vertex="1" parent="rD1QUfDaMHbPbBrSeHR1-35">
          <mxGeometry width="14" height="14" relative="1" as="geometry">
            <mxPoint x="-534.5" y="-7" as="offset" />
          </mxGeometry>
        </mxCell>
      </root>
    </mxGraphModel>
  </diagram>
</mxfile>
